HIERARCHY
ROOT Hips
{
	OFFSET 0.000000 97.167313 0.000000
	CHANNELS 6 Xposition Yposition Zposition Xrotation Yrotation Zrotation
	JOINT Spine
	{
		OFFSET 0.000000 13.784798 0.064400
		CHANNELS 3 Xrotation Yrotation Zrotation
		JOINT Spine1
		{
			OFFSET 0.000000 12.037903 0.404700
			CHANNELS 3 Xrotation Yrotation Zrotation
			JOINT Spine2
			{
				OFFSET 0.000000 17.795601 0.420200
				CHANNELS 3 Xrotation Yrotation Zrotation
				JOINT Neck
				{
					OFFSET 0.000000 39.131302 11.954600
					CHANNELS 3 Xrotation Yrotation Zrotation
					JOINT Head
					{
						OFFSET 0.000000 14.456192 15.627699
						CHANNELS 3 Xrotation Yrotation Zrotation
						JOINT HeadTop_End
						{
							OFFSET 0.000000 15.703506 7.603401
							CHANNELS 3 Xrotation Yrotation Zrotation
							End Site
							{
								OFFSET 0.000000 17.447403 0.000000
							}
						}
					}
				}
				JOINT LeftShoulder
				{
					OFFSET 17.399500 24.608795 1.168800
					CHANNELS 3 Xrotation Yrotation Zrotation
					JOINT LeftArm
					{
						OFFSET 18.980635 5.765305 1.818600
						CHANNELS 3 Xrotation Yrotation Zrotation
						JOINT LeftForeArm
						{
							OFFSET 49.290169 0.000000 0.000000
							CHANNELS 3 Xrotation Yrotation Zrotation
							JOINT LeftHand
							{
								OFFSET 31.562012 0.000000 0.000000
								CHANNELS 3 Xrotation Yrotation Zrotation
								JOINT LeftHandThumb1
								{
									OFFSET 6.133995 -4.388519 7.076070
									CHANNELS 3 Xrotation Yrotation Zrotation
									JOINT LeftHandThumb2
									{
										OFFSET 6.037666 -3.485840 3.485847
										CHANNELS 3 Xrotation Yrotation Zrotation
										JOINT LeftHandThumb3
										{
											OFFSET 6.496506 -3.750763 3.750761
											CHANNELS 3 Xrotation Yrotation Zrotation
											JOINT LeftHandThumb4
											{
												OFFSET 5.616882 -3.242905 3.242910
												CHANNELS 3 Xrotation Yrotation Zrotation
												End Site
												{
													OFFSET -1.254608 7.132141 0.375429
												}
											}
										}
									}
								}
								JOINT LeftHandPinky1
								{
									OFFSET 18.920792 -0.453171 -11.426712
									CHANNELS 3 Xrotation Yrotation Zrotation
									JOINT LeftHandPinky2
									{
										OFFSET 4.919586 0.000000 0.000000
										CHANNELS 3 Xrotation Yrotation Zrotation
										JOINT LeftHandPinky3
										{
											OFFSET 5.233047 0.000000 0.000000
											CHANNELS 3 Xrotation Yrotation Zrotation
											JOINT LeftHandPinky4
											{
												OFFSET 5.571716 0.000000 0.000000
												CHANNELS 3 Xrotation Yrotation Zrotation
												End Site
												{
													OFFSET -3.459808 4.342407 -0.466164
												}
											}
										}
									}
								}
								JOINT LeftHandRing1
								{
									OFFSET 22.726120 -0.094986 -6.500475
									CHANNELS 3 Xrotation Yrotation Zrotation
									JOINT LeftHandRing2
									{
										OFFSET 6.408615 0.000000 0.000000
										CHANNELS 3 Xrotation Yrotation Zrotation
										JOINT LeftHandRing3
										{
											OFFSET 6.150223 0.000000 0.000000
											CHANNELS 3 Xrotation Yrotation Zrotation
											JOINT LeftHandRing4
											{
												OFFSET 6.145386 0.000000 0.000000
												CHANNELS 3 Xrotation Yrotation Zrotation
												End Site
												{
													OFFSET -3.671402 4.923981 -0.202372
												}
											}
										}
									}
								}
								JOINT LeftHandMiddle1
								{
									OFFSET 23.373947 0.000000 0.000001
									CHANNELS 3 Xrotation Yrotation Zrotation
									JOINT LeftHandMiddle2
									{
										OFFSET 6.996567 0.000000 0.000000
										CHANNELS 3 Xrotation Yrotation Zrotation
										JOINT LeftHandMiddle3
										{
											OFFSET 7.015945 0.000000 0.000000
											CHANNELS 3 Xrotation Yrotation Zrotation
											JOINT LeftHandMiddle4
											{
												OFFSET 7.721573 0.000000 0.000000
												CHANNELS 3 Xrotation Yrotation Zrotation
												End Site
												{
													OFFSET -4.651108 6.158463 0.251582
												}
											}
										}
									}
								}
								JOINT LeftHandIndex1
								{
									OFFSET 21.310577 -0.490082 6.209344
									CHANNELS 3 Xrotation Yrotation Zrotation
									JOINT LeftHandIndex2
									{
										OFFSET 7.536453 0.000000 0.000000
										CHANNELS 3 Xrotation Yrotation Zrotation
										JOINT LeftHandIndex3
										{
											OFFSET 7.512344 0.000000 0.000000
											CHANNELS 3 Xrotation Yrotation Zrotation
											JOINT LeftHandIndex4
											{
												OFFSET 10.212402 0.000000 0.000001
												CHANNELS 3 Xrotation Yrotation Zrotation
												End Site
												{
													OFFSET -5.180801 8.690506 1.388433
												}
											}
										}
									}
								}
							}
						}
					}
				}
				JOINT RightShoulder
				{
					OFFSET -17.399500 24.608795 1.168800
					CHANNELS 3 Xrotation Yrotation Zrotation
					JOINT RightArm
					{
						OFFSET -18.980635 5.765305 1.818600
						CHANNELS 3 Xrotation Yrotation Zrotation
						JOINT RightForeArm
						{
							OFFSET -49.290169 0.000000 0.000000
							CHANNELS 3 Xrotation Yrotation Zrotation
							JOINT RightHand
							{
								OFFSET -31.562012 0.000000 0.000000
								CHANNELS 3 Xrotation Yrotation Zrotation
								JOINT RightHandThumb1
								{
									OFFSET -6.133995 -4.388519 7.076070
									CHANNELS 3 Xrotation Yrotation Zrotation
									JOINT RightHandThumb2
									{
										OFFSET -6.037666 -3.485840 3.485847
										CHANNELS 3 Xrotation Yrotation Zrotation
										JOINT RightHandThumb3
										{
											OFFSET -6.496506 -3.750763 3.750761
											CHANNELS 3 Xrotation Yrotation Zrotation
											JOINT RightHandThumb4
											{
												OFFSET -5.616882 -3.242905 3.242910
												CHANNELS 3 Xrotation Yrotation Zrotation
												End Site
												{
													OFFSET 1.254608 7.132141 0.375429
												}
											}
										}
									}
								}
								JOINT RightHandIndex1
								{
									OFFSET -21.310577 -0.490082 6.209344
									CHANNELS 3 Xrotation Yrotation Zrotation
									JOINT RightHandIndex2
									{
										OFFSET -7.536453 0.000000 0.000000
										CHANNELS 3 Xrotation Yrotation Zrotation
										JOINT RightHandIndex3
										{
											OFFSET -7.512344 0.000000 0.000000
											CHANNELS 3 Xrotation Yrotation Zrotation
											JOINT RightHandIndex4
											{
												OFFSET -10.212402 0.000000 0.000001
												CHANNELS 3 Xrotation Yrotation Zrotation
												End Site
												{
													OFFSET 5.180801 8.690506 1.388433
												}
											}
										}
									}
								}
								JOINT RightHandMiddle1
								{
									OFFSET -23.373947 0.000000 0.000001
									CHANNELS 3 Xrotation Yrotation Zrotation
									JOINT RightHandMiddle2
									{
										OFFSET -6.996567 0.000000 0.000000
										CHANNELS 3 Xrotation Yrotation Zrotation
										JOINT RightHandMiddle3
										{
											OFFSET -7.015945 0.000000 0.000000
											CHANNELS 3 Xrotation Yrotation Zrotation
											JOINT RightHandMiddle4
											{
												OFFSET -7.721573 0.000000 0.000000
												CHANNELS 3 Xrotation Yrotation Zrotation
												End Site
												{
													OFFSET 4.651108 6.158463 0.251582
												}
											}
										}
									}
								}
								JOINT RightHandRing1
								{
									OFFSET -22.726120 -0.094986 -6.500475
									CHANNELS 3 Xrotation Yrotation Zrotation
									JOINT RightHandRing2
									{
										OFFSET -6.408615 0.000000 0.000000
										CHANNELS 3 Xrotation Yrotation Zrotation
										JOINT RightHandRing3
										{
											OFFSET -6.150223 0.000000 0.000000
											CHANNELS 3 Xrotation Yrotation Zrotation
											JOINT RightHandRing4
											{
												OFFSET -6.145386 0.000000 0.000000
												CHANNELS 3 Xrotation Yrotation Zrotation
												End Site
												{
													OFFSET 3.671402 4.923981 -0.202372
												}
											}
										}
									}
								}
								JOINT RightHandPinky1
								{
									OFFSET -18.920792 -0.453171 -11.426712
									CHANNELS 3 Xrotation Yrotation Zrotation
									JOINT RightHandPinky2
									{
										OFFSET -4.919586 0.000000 0.000000
										CHANNELS 3 Xrotation Yrotation Zrotation
										JOINT RightHandPinky3
										{
											OFFSET -5.233047 0.000000 0.000000
											CHANNELS 3 Xrotation Yrotation Zrotation
											JOINT RightHandPinky4
											{
												OFFSET -5.571716 0.000000 0.000000
												CHANNELS 3 Xrotation Yrotation Zrotation
												End Site
												{
													OFFSET 3.459808 4.342407 -0.466164
												}
											}
										}
									}
								}
							}
						}
					}
				}
			}
		}
	}
	JOINT LeftUpLeg
	{
		OFFSET 19.899099 -7.885101 -3.429500
		CHANNELS 3 Xrotation Yrotation Zrotation
		JOINT LeftLeg
		{
			OFFSET 1.745560 -36.997807 10.304700
			CHANNELS 3 Xrotation Yrotation Zrotation
			JOINT LeftFoot
			{
				OFFSET -1.745558 -29.803308 -13.615400
				CHANNELS 3 Xrotation Yrotation Zrotation
				JOINT LeftToeBase
				{
					OFFSET 1.181900 -18.539904 15.226099
					CHANNELS 3 Xrotation Yrotation Zrotation
					JOINT LeftToe_End
					{
						OFFSET -0.863701 1.402801 16.534700
						CHANNELS 3 Xrotation Yrotation Zrotation
						End Site
						{
							OFFSET 0.000000 16.616566 0.000000
						}
					}
				}
			}
		}
	}
	JOINT RightUpLeg
	{
		OFFSET -19.899099 -7.885101 -3.429500
		CHANNELS 3 Xrotation Yrotation Zrotation
		JOINT RightLeg
		{
			OFFSET -1.745560 -36.997807 10.304700
			CHANNELS 3 Xrotation Yrotation Zrotation
			JOINT RightFoot
			{
				OFFSET 1.745558 -29.803308 -13.615400
				CHANNELS 3 Xrotation Yrotation Zrotation
				JOINT RightToeBase
				{
					OFFSET -1.181900 -18.539904 15.226099
					CHANNELS 3 Xrotation Yrotation Zrotation
					JOINT RightToe_End
					{
						OFFSET 0.863701 1.402801 16.534700
						CHANNELS 3 Xrotation Yrotation Zrotation
						End Site
						{
							OFFSET 0.000000 16.616566 0.000000
						}
					}
				}
			}
		}
	}
}
MOTION
Frames: 4
Frame Time: 0.033333
1.107660 91.565819 1.518149 -0.284489 -0.004457 -2.511632 0.560157 -1.386457 0.506294 0.885190 -0.164266 2.642427 0.868054 0.312699 2.544612 1.241733 -0.362911 0.178303 1.581165 0.547394 -5.747803 -0.000000 0.000000 -0.000000 -0.001688 0.005586 -0.312038 3.284021 -25.852177 -73.291748 2.210901 -20.457868 0.701253 -31.890211 -2.756906 2.766968 15.772737 2.736707 17.226060 -2.103363 31.049265 -7.355487 -6.563970 4.140686 -2.418888 0.000000 0.000001 0.000000 -6.474715 11.346005 -23.245562 10.716614 2.547744 -34.825086 6.414123 3.075336 -15.312990 0.000001 0.000001 -0.000004 -3.264460 8.554531 -11.754512 4.032620 4.051363 -33.265115 2.113255 3.141121 -15.593146 -0.000001 0.000001 0.000005 -1.973821 5.700538 -13.648034 0.262682 5.095126 -26.987867 -0.633299 1.138917 -11.787827 0.000001 0.000000 0.000004 2.390226 3.653298 -8.472366 -2.149511 2.455158 -18.676935 -1.925222 4.810205 -14.171671 -0.000000 0.000001 0.000002 0.000591 0.000050 0.310239 5.328182 -3.221475 75.188771 -0.286945 18.990421 0.143917 -7.879885 -10.226771 5.197433 15.777447 -2.732224 -17.219653 -2.123695 -31.064148 7.365107 -6.545001 -4.123606 2.398516 -0.000002 -0.000001 -0.000001 2.379453 -3.658621 8.489456 -2.152620 -2.466850 18.674190 -1.919130 -4.830945 14.174040 0.000000 0.000000 -0.000001 -1.969492 -5.710680 13.665646 0.261229 -5.084865 26.989361 -0.645073 -1.166239 11.787162 0.000001 0.000000 -0.000004 -4.979322 -10.121053 10.784423 4.029675 -4.024896 33.264162 2.104866 -3.144199 15.588247 -0.000000 0.000001 -0.000003 -6.459828 -11.338753 23.255959 10.737049 -2.567625 34.828446 6.415273 -3.061005 15.311449 -0.000000 -0.000003 0.000004 -15.280065 12.011844 14.819641 23.405771 9.485540 -0.258866 -6.198577 4.803467 -9.740756 -0.461335 0.002412 -0.013298 0.000000 -0.000001 0.000000 -1.956192 -3.836513 2.092231 16.398306 -2.536449 3.845180 -14.005031 -0.346078 -2.851942 -0.586305 -0.003893 -0.000019 -0.000000 -0.000000 -0.000000 
1.472111 91.349937 1.787377 -0.265495 -0.235117 -2.677978 -0.405924 -1.373291 0.567942 1.571009 -0.113807 2.516878 1.552221 0.363452 2.417418 1.329576 -0.343497 0.285390 1.750334 0.557370 -5.822796 0.000000 -0.000000 -0.000000 0.006299 0.001892 -0.266485 3.286270 -25.397492 -73.449218 1.067532 -20.233028 0.360693 -29.835113 -4.167283 2.855740 15.780805 2.614987 16.927210 -2.091284 30.829247 -7.220257 -6.545191 4.037990 -2.441282 -0.000001 0.000003 -0.000002 -6.468969 11.352614 -23.845597 10.625251 2.521577 -35.396485 6.359730 3.060786 -15.897405 0.000002 -0.000000 -0.000000 -3.215677 8.547744 -12.391918 3.993099 4.022073 -33.872879 2.091626 3.134478 -16.209542 0.000001 0.000002 0.000003 -1.970266 5.700719 -14.276877 0.267193 5.070268 -27.611892 -0.631354 1.122328 -12.405830 0.000000 -0.000000 0.000004 2.387431 3.651276 -9.069064 -2.134098 2.448375 -19.275163 -1.902092 4.794689 -14.770506 -0.000001 0.000001 0.000001 0.010627 0.206939 0.480021 6.203099 -3.430413 75.032408 -1.063370 20.599084 0.486744 -7.875866 -9.770539 4.694790 15.765730 -2.746179 -17.353243 -2.123723 -31.064151 7.365089 -6.544985 -4.123603 2.398522 -0.000001 -0.000001 -0.000001 2.370656 -3.657038 8.362815 -2.152691 -2.464257 18.544367 -1.923387 -4.829594 14.047024 -0.000001 -0.000003 -0.000001 -1.982283 -5.708514 13.536917 0.257403 -5.084159 26.862074 -0.644910 -1.163952 11.661634 0.000001 0.000001 -0.000004 -4.965653 -10.103539 10.664747 4.020674 -4.033809 33.136366 2.104456 -3.144961 15.461462 -0.000002 0.000001 -0.000005 -6.479014 -11.336403 23.126467 10.735066 -2.565524 34.699086 6.412345 -3.075345 15.184769 -0.000000 -0.000000 0.000006 -15.342138 11.975972 14.809138 24.376730 9.604431 -0.239853 -7.136514 4.966054 -9.767627 -0.461328 0.002421 -0.013300 -0.000000 -0.000001 -0.000000 -2.013825 -3.815517 1.888424 16.873149 -2.348663 3.919615 -14.409935 -0.274359 -2.579289 -0.542092 -0.003576 -0.033480 0.000000 -0.000001 -0.000000 
1.838978 91.135750 2.062116 -0.239412 -0.482808 -2.841655 -1.374316 -1.360294 0.627867 2.257075 -0.065937 2.387017 2.236878 0.411056 2.286149 1.423775 -0.322666 0.407015 1.922547 0.568301 -5.912543 0.000000 0.000000 -0.000000 0.011853 -0.009725 -0.232959 3.328832 -24.872291 -73.581922 -0.001572 -20.043588 0.055182 -27.721660 -5.603855 3.063598 15.788711 2.494314 16.628994 -2.078171 30.610647 -7.085192 -6.524462 3.940049 -2.461777 0.000001 -0.000002 0.000001 -6.462982 11.359195 -24.458807 10.533880 2.496131 -35.979497 6.305755 3.047289 -16.493920 0.000004 0.000002 0.000001 -3.166861 8.541082 -13.042211 3.953570 3.993873 -34.491397 2.068872 3.124085 -16.837350 0.000000 -0.000001 -0.000002 -1.966507 5.701507 -14.917960 0.271433 5.045833 -28.246944 -0.623916 1.107168 -13.035241 -0.000000 -0.000001 0.000006 2.384837 3.650316 -9.678044 -2.118664 2.441560 -19.885597 -1.878544 4.779493 -15.381134 -0.000000 -0.000000 -0.000001 0.019416 0.413707 0.649410 7.075872 -3.635100 74.919853 -1.835043 22.152815 0.867182 -7.865409 -9.277244 4.202146 15.752826 -2.761654 -17.500543 -2.123703 -31.064127 7.365099 -6.544985 -4.123623 2.398530 -0.000001 -0.000002 -0.000000 2.361813 -3.663292 8.223152 -2.156048 -2.459778 18.402237 -1.935960 -4.827028 13.906843 -0.000001 -0.000001 -0.000001 -1.996300 -5.706111 13.395592 0.244163 -5.084341 26.721582 -0.644710 -1.161429 11.522574 0.000000 0.000000 -0.000004 -4.952148 -10.084660 10.532777 4.010780 -4.043595 32.995763 2.104184 -3.148724 15.321810 -0.000000 0.000001 -0.000003 -6.496959 -11.342905 22.983402 10.732882 -2.563226 34.557322 6.409149 -3.091073 15.045525 -0.000000 0.000001 0.000004 -15.380804 11.947305 14.787814 25.316291 9.739737 -0.222572 -8.069157 5.135803 -9.797272 -0.461344 0.002421 -0.013302 -0.000000 0.000001 -0.000000 -2.078053 -3.793630 1.674733 17.337040 -2.153745 3.993387 -14.806532 -0.191891 -2.303068 -0.497897 -0.003296 -0.066936 -0.000000 0.000000 -0.000000 
2.247268 90.898041 2.392730 -0.146368 -0.878724 -2.993773 -2.361725 -1.379611 0.686387 2.943339 -0.040807 2.219370 2.923787 0.431057 2.119236 1.576416 -0.290673 0.663869 2.126536 0.665892 -6.139322 -0.000000 -0.000000 0.000000 0.004868 -0.091442 -0.255095 3.528019 -23.846345 -73.564792 -0.658143 -19.996518 -0.118401 -25.457831 -7.194334 3.355074 15.794980 2.381110 16.335232 -2.057354 30.400653 -6.952419 -6.486318 3.884039 -2.467276 0.000001 0.000001 0.000005 -6.449587 11.367093 -25.186201 10.445414 2.471098 -36.663653 6.252796 3.032119 -17.195565 0.000002 0.000000 -0.000002 -3.113547 8.535938 -13.804813 3.914805 3.964947 -35.204048 2.045500 3.107703 -17.566763 -0.000001 0.000000 0.000003 -1.962000 5.703010 -15.663989 0.277025 5.021369 -28.979239 -0.615547 1.092778 -13.764026 -0.000000 -0.000001 0.000004 2.382644 3.655649 -10.393815 -2.100516 2.434950 -20.603148 -1.851516 4.765789 -16.095525 -0.000000 0.000001 0.000002 0.026231 0.618233 0.818095 7.683572 -3.778400 74.741066 -2.426706 23.272384 1.197008 -7.856199 -8.452812 3.802893 15.722983 -2.774190 -17.766980 -2.123709 -31.064134 7.365105 -6.544987 -4.123611 2.398514 -0.000001 0.000004 0.000001 2.359710 -3.665984 7.972800 -2.166700 -2.451057 18.152720 -1.941071 -4.824722 13.653581 -0.000002 -0.000002 0.000003 -2.001010 -5.701958 13.147832 0.238615 -5.084176 26.469075 -0.644345 -1.156753 11.265769 0.000001 0.000001 -0.000004 -4.936798 -10.070042 10.292748 4.009018 -4.052462 32.743923 2.103656 -3.154273 15.069047 -0.000001 0.000001 -0.000003 -6.506363 -11.346170 22.731324 10.729052 -2.559148 34.306288 6.404299 -3.095536 14.795035 -0.000002 0.000000 -0.000003 -15.375003 11.922237 14.724303 26.301339 9.988318 -0.202491 -9.112929 5.375209 -9.879707 -0.461347 0.002420 -0.013299 0.000000 0.000000 0.000000 -2.246013 -3.769791 1.383424 17.860830 -1.896737 4.077253 -15.225876 -0.017562 -1.989407 -0.453667 -0.008969 -0.100392 -0.000000 -0.000000 -0.000000 
